<svg width="26" height="26" viewBox="0 0 26 26" fill="none" xmlns="http://www.w3.org/2000/svg">
<g id="Frame">
<g id="SVGRepo_iconCarrier">
<path id="Vector" d="M7.7373 13.1943H6.9873C6.9873 13.2118 6.98791 13.2293 6.98913 13.2467L7.7373 13.1943ZM8.5193 13.8803V13.1303C8.50413 13.1303 8.48897 13.1308 8.47383 13.1317L8.5193 13.8803ZM17.9543 13.8803L18.0428 13.1356C18.0134 13.1321 17.9839 13.1303 17.9543 13.1303V13.8803ZM18.6163 12.8283L19.2494 12.4263C19.2419 12.4144 19.234 12.4027 19.2258 12.3913L18.6163 12.8283ZM16.6803 10.1283L17.2899 9.69127L17.284 9.68334L16.6803 10.1283ZM16.6803 9.39734L17.2841 9.84239L17.2898 9.83438L16.6803 9.39734ZM18.6163 6.69734L19.2258 7.13438C19.234 7.12294 19.2419 7.11127 19.2494 7.09939L18.6163 6.69734ZM17.9543 5.64534V6.39534C17.9839 6.39534 18.0134 6.39359 18.0428 6.3901L17.9543 5.64534ZM8.5193 5.64534L8.47383 6.39396C8.48897 6.39488 8.50413 6.39534 8.5193 6.39534V5.64534ZM7.7373 6.33134L6.98913 6.27893C6.98791 6.29638 6.9873 6.31386 6.9873 6.33134H7.7373ZM8.4873 13.1943C8.4873 12.7801 8.15151 12.4443 7.7373 12.4443C7.32309 12.4443 6.9873 12.7801 6.9873 13.1943H8.4873ZM6.9873 19.6453C6.9873 20.0595 7.32309 20.3953 7.7373 20.3953C8.15151 20.3953 8.4873 20.0595 8.4873 19.6453H6.9873ZM6.98913 13.2467C7.04622 14.0617 7.74931 14.6785 8.56477 14.6289L8.47383 13.1317L8.47527 13.1318L8.47837 13.1326L8.48175 13.1344C8.48175 13.1344 8.48311 13.1357 8.484 13.1375L8.48516 13.1405L8.48547 13.1419L6.98913 13.2467ZM8.5193 14.6303H17.9543V13.1303H8.5193V14.6303ZM17.8658 14.6251C18.4171 14.6906 18.9569 14.4329 19.2526 13.963L17.983 13.1641C17.9958 13.1439 18.0191 13.1327 18.0428 13.1356L17.8658 14.6251ZM19.2526 13.963C19.5483 13.4931 19.5471 12.895 19.2494 12.4263L17.9832 13.2304C17.9703 13.2102 17.9703 13.1844 17.983 13.1641L19.2526 13.963ZM19.2258 12.3913L17.2899 9.69127L16.0708 10.5654L18.0068 13.2654L19.2258 12.3913ZM17.284 9.68334C17.3189 9.73061 17.319 9.79511 17.2841 9.84239L16.0766 8.95234C15.7213 9.43428 15.7213 10.0914 16.0766 10.5733L17.284 9.68334ZM17.2898 9.83438L19.2258 7.13438L18.0068 6.26031L16.0708 8.96031L17.2898 9.83438ZM19.2494 7.09939C19.5471 6.6307 19.5483 6.03256 19.2526 5.56266L17.983 6.36156C17.9703 6.3413 17.9703 6.31551 17.9832 6.2953L19.2494 7.09939ZM19.2526 5.56266C18.9569 5.09276 18.4171 4.83506 17.8658 4.90059L18.0428 6.3901C18.0191 6.39293 17.9958 6.38182 17.983 6.36156L19.2526 5.56266ZM17.9543 4.89534H8.5193V6.39534H17.9543V4.89534ZM8.56477 4.89672C7.74931 4.84719 7.04622 5.46396 6.98913 6.27893L7.67815 6.33134L8.48547 6.38375L8.48516 6.38517L8.484 6.38814L8.48175 6.39125L8.47837 6.39309L8.47527 6.39384L8.47383 6.39396L8.51643 5.69266L8.56477 4.89672ZM6.9873 6.33134V13.1943H8.4873V6.33134H6.9873ZM6.9873 13.1943V16.9392H8.4873V13.1943H6.9873ZM6.9873 16.9392V19.6453H8.4873V16.9392H6.9873Z" fill="#6D6D6D"/>
</g>
</g>
</svg>
