<svg width="25" height="25" viewBox="0 0 25 25" fill="none" xmlns="http://www.w3.org/2000/svg">
<path d="M7.73682 13.1943H6.98682C6.98682 13.2118 6.98743 13.2293 6.98865 13.2467L7.73682 13.1943ZM8.51882 13.8803V13.1303C8.50365 13.1303 8.48849 13.1308 8.47335 13.1317L8.51882 13.8803ZM17.9538 13.8803L18.0423 13.1356C18.0129 13.1321 17.9834 13.1303 17.9538 13.1303V13.8803ZM18.6158 12.8283L19.2489 12.4263C19.2414 12.4144 19.2335 12.4027 19.2253 12.3913L18.6158 12.8283ZM16.6798 10.1283L17.2894 9.69127L17.2835 9.68334L16.6798 10.1283ZM16.6798 9.39734L17.2836 9.84239L17.2893 9.83438L16.6798 9.39734ZM18.6158 6.69734L19.2253 7.13438C19.2335 7.12294 19.2414 7.11127 19.2489 7.09939L18.6158 6.69734ZM17.9538 5.64534V6.39534C17.9834 6.39534 18.0129 6.39359 18.0423 6.3901L17.9538 5.64534ZM8.51882 5.64534L8.47335 6.39396C8.48849 6.39488 8.50365 6.39534 8.51882 6.39534V5.64534ZM7.73682 6.33134L6.98865 6.27893C6.98743 6.29638 6.98682 6.31386 6.98682 6.33134H7.73682ZM8.48682 13.1943C8.48682 12.7801 8.15103 12.4443 7.73682 12.4443C7.32261 12.4443 6.98682 12.7801 6.98682 13.1943H8.48682ZM6.98682 19.6453C6.98682 20.0595 7.32261 20.3953 7.73682 20.3953C8.15103 20.3953 8.48682 20.0595 8.48682 19.6453H6.98682ZM6.98865 13.2467C7.04574 14.0617 7.74883 14.6785 8.56429 14.6289L8.47335 13.1317L8.47479 13.1318L8.47789 13.1326L8.48127 13.1344C8.48127 13.1344 8.48263 13.1357 8.48352 13.1375L8.48468 13.1405L8.48499 13.1419L6.98865 13.2467ZM8.51882 14.6303H17.9538V13.1303H8.51882V14.6303ZM17.8653 14.6251C18.4166 14.6906 18.9564 14.4329 19.2521 13.963L17.9825 13.1641C17.9953 13.1439 18.0186 13.1327 18.0423 13.1356L17.8653 14.6251ZM19.2521 13.963C19.5478 13.4931 19.5466 12.895 19.2489 12.4263L17.9827 13.2304C17.9698 13.2102 17.9698 13.1844 17.9825 13.1641L19.2521 13.963ZM19.2253 12.3913L17.2894 9.69127L16.0703 10.5654L18.0063 13.2654L19.2253 12.3913ZM17.2835 9.68334C17.3184 9.73061 17.3185 9.79511 17.2836 9.84239L16.0761 8.95234C15.7208 9.43428 15.7208 10.0914 16.0761 10.5733L17.2835 9.68334ZM17.2893 9.83438L19.2253 7.13438L18.0063 6.26031L16.0703 8.96031L17.2893 9.83438ZM19.2489 7.09939C19.5466 6.6307 19.5478 6.03256 19.2521 5.56266L17.9825 6.36156C17.9698 6.3413 17.9698 6.31551 17.9827 6.2953L19.2489 7.09939ZM19.2521 5.56266C18.9564 5.09276 18.4166 4.83506 17.8653 4.90059L18.0423 6.3901C18.0186 6.39293 17.9953 6.38182 17.9825 6.36156L19.2521 5.56266ZM17.9538 4.89534H8.51882V6.39534H17.9538V4.89534ZM8.56429 4.89672C7.74883 4.84719 7.04574 5.46396 6.98865 6.27893L7.67766 6.33134L8.48499 6.38375L8.48468 6.38517L8.48352 6.38814L8.48127 6.39125L8.47789 6.39309L8.47479 6.39384L8.47335 6.39396L8.51594 5.69266L8.56429 4.89672ZM6.98682 6.33134V13.1943H8.48682V6.33134H6.98682ZM6.98682 13.1943V16.9392H8.48682V13.1943H6.98682ZM6.98682 16.9392V19.6453H8.48682V16.9392H6.98682Z" fill="#129954"/>
<rect x="8.00049" y="6" width="9" height="8" fill="#129954"/>
<rect x="13.0005" y="11" width="5" height="3" fill="#129954"/>
<rect x="13.0005" y="5" width="5" height="3" fill="#129954"/>
</svg>
