<svg width="25" height="25" viewBox="0 0 25 25" fill="none" xmlns="http://www.w3.org/2000/svg">
<path d="M7 13.0538H6.25C6.25 13.0713 6.25061 13.0888 6.25183 13.1062L7 13.0538ZM7.782 13.7398V12.9898C7.76683 12.9898 7.75167 12.9903 7.73653 12.9912L7.782 13.7398ZM17.217 13.7398L17.3055 12.9951C17.2761 12.9916 17.2466 12.9898 17.217 12.9898V13.7398ZM17.879 12.6878L18.5121 12.2858C18.5046 12.2739 18.4967 12.2622 18.4885 12.2508L17.879 12.6878ZM15.943 9.98783L16.5526 9.55076L16.5467 9.54283L15.943 9.98783ZM15.943 9.25683L16.5468 9.70188L16.5525 9.69387L15.943 9.25683ZM17.879 6.55683L18.4885 6.99387C18.4967 6.98243 18.5046 6.97076 18.5121 6.95888L17.879 6.55683ZM17.217 5.50483V6.25483C17.2466 6.25483 17.2761 6.25308 17.3055 6.24959L17.217 5.50483ZM7.782 5.50483L7.73653 6.25345C7.75167 6.25437 7.76683 6.25483 7.782 6.25483V5.50483ZM7 6.19083L6.25183 6.13842C6.25061 6.15587 6.25 6.17335 6.25 6.19083H7ZM7.75 13.0538C7.75 12.6396 7.41421 12.3038 7 12.3038C6.58579 12.3038 6.25 12.6396 6.25 13.0538H7.75ZM6.25 19.5048C6.25 19.919 6.58579 20.2548 7 20.2548C7.41421 20.2548 7.75 19.919 7.75 19.5048H6.25ZM6.25183 13.1062C6.30892 13.9212 7.01201 14.538 7.82747 14.4884L7.73653 12.9912L7.73797 12.9913L7.74107 12.9921L7.74445 12.9939C7.74445 12.9939 7.74581 12.9952 7.7467 12.997L7.74786 13L7.74817 13.0014L6.25183 13.1062ZM7.782 14.4898H17.217V12.9898H7.782V14.4898ZM17.1285 14.4846C17.6798 14.5501 18.2196 14.2924 18.5153 13.8225L17.2457 13.0236C17.2585 13.0034 17.2818 12.9922 17.3055 12.9951L17.1285 14.4846ZM18.5153 13.8225C18.811 13.3526 18.8098 12.7545 18.5121 12.2858L17.2459 13.0899C17.233 13.0697 17.233 13.0439 17.2457 13.0236L18.5153 13.8225ZM18.4885 12.2508L16.5526 9.55076L15.3335 10.4249L17.2695 13.1249L18.4885 12.2508ZM16.5467 9.54283C16.5816 9.5901 16.5817 9.6546 16.5468 9.70188L15.3393 8.81183C14.984 9.29377 14.984 9.95089 15.3393 10.4328L16.5467 9.54283ZM16.5525 9.69387L18.4885 6.99387L17.2695 6.1198L15.3335 8.8198L16.5525 9.69387ZM18.5121 6.95888C18.8098 6.49019 18.811 5.89205 18.5153 5.42215L17.2457 6.22105C17.233 6.20079 17.233 6.175 17.2459 6.15479L18.5121 6.95888ZM18.5153 5.42215C18.2196 4.95225 17.6798 4.69455 17.1285 4.76008L17.3055 6.24959C17.2818 6.25242 17.2585 6.24131 17.2457 6.22105L18.5153 5.42215ZM17.217 4.75483H7.782V6.25483H17.217V4.75483ZM7.82747 4.75621C7.01201 4.70668 6.30892 5.32345 6.25183 6.13842L6.94085 6.19083L7.74817 6.24324L7.74786 6.24466L7.7467 6.24763L7.74445 6.25074L7.74107 6.25258L7.73797 6.25333L7.73653 6.25345L7.77913 5.55215L7.82747 4.75621ZM6.25 6.19083V13.0538H7.75V6.19083H6.25ZM6.25 13.0538V16.7987H7.75V13.0538H6.25ZM6.25 16.7987V19.5048H7.75V16.7987H6.25Z" fill="#AE1425"/>
</svg>
