<svg width="25" height="25" viewBox="0 0 26 26" fill="#AE1425" xmlns="http://www.w3.org/2000/svg">
<path d="M7.73688 13.1943H6.98688C6.98688 13.2118 6.98749 13.2293 6.98871 13.2467L7.73688 13.1943ZM8.51888 13.8803V13.1303C8.50371 13.1303 8.48855 13.1308 8.47341 13.1317L8.51888 13.8803ZM17.9539 13.8803L18.0424 13.1356C18.013 13.1321 17.9835 13.1303 17.9539 13.1303V13.8803ZM18.6159 12.8283L19.249 12.4263C19.2415 12.4144 19.2336 12.4027 19.2254 12.3913L18.6159 12.8283ZM16.6799 10.1283L17.2895 9.69127L17.2836 9.68334L16.6799 10.1283ZM16.6799 9.39734L17.2837 9.84239L17.2894 9.83438L16.6799 9.39734ZM18.6159 6.69734L19.2254 7.13438C19.2336 7.12294 19.2415 7.11127 19.249 7.09939L18.6159 6.69734ZM17.9539 5.64534V6.39534C17.9835 6.39534 18.013 6.39359 18.0424 6.3901L17.9539 5.64534ZM8.51888 5.64534L8.47341 6.39396C8.48855 6.39488 8.50371 6.39534 8.51888 6.39534V5.64534ZM7.73688 6.33134L6.98871 6.27893C6.98749 6.29638 6.98688 6.31386 6.98688 6.33134H7.73688ZM8.48688 13.1943C8.48688 12.7801 8.15109 12.4443 7.73688 12.4443C7.32267 12.4443 6.98688 12.7801 6.98688 13.1943H8.48688ZM6.98688 19.6453C6.98688 20.0595 7.32267 20.3953 7.73688 20.3953C8.15109 20.3953 8.48688 20.0595 8.48688 19.6453H6.98688ZM6.98871 13.2467C7.0458 14.0617 7.74889 14.6785 8.56435 14.6289L8.47341 13.1317L8.47485 13.1318L8.47795 13.1326L8.48133 13.1344C8.48133 13.1344 8.48269 13.1357 8.48358 13.1375L8.48474 13.1405L8.48505 13.1419L6.98871 13.2467ZM8.51888 14.6303H17.9539V13.1303H8.51888V14.6303ZM17.8654 14.6251C18.4167 14.6906 18.9565 14.4329 19.2522 13.963L17.9826 13.1641C17.9954 13.1439 18.0187 13.1327 18.0424 13.1356L17.8654 14.6251ZM19.2522 13.963C19.5479 13.4931 19.5467 12.895 19.249 12.4263L17.9828 13.2304C17.9699 13.2102 17.9699 13.1844 17.9826 13.1641L19.2522 13.963ZM19.2254 12.3913L17.2895 9.69127L16.0704 10.5654L18.0064 13.2654L19.2254 12.3913ZM17.2836 9.68334C17.3185 9.73061 17.3186 9.79511 17.2837 9.84239L16.0762 8.95234C15.7209 9.43428 15.7209 10.0914 16.0762 10.5733L17.2836 9.68334ZM17.2894 9.83438L19.2254 7.13438L18.0064 6.26031L16.0704 8.96031L17.2894 9.83438ZM19.249 7.09939C19.5467 6.6307 19.5479 6.03256 19.2522 5.56266L17.9826 6.36156C17.9699 6.3413 17.9699 6.31551 17.9828 6.2953L19.249 7.09939ZM19.2522 5.56266C18.9565 5.09276 18.4167 4.83506 17.8654 4.90059L18.0424 6.3901C18.0187 6.39293 17.9954 6.38182 17.9826 6.36156L19.2522 5.56266ZM17.9539 4.89534H8.51888V6.39534H17.9539V4.89534ZM8.56435 4.89672C7.74889 4.84719 7.0458 5.46396 6.98871 6.27893L7.67772 6.33134L8.48505 6.38375L8.48474 6.38517L8.48358 6.38814L8.48133 6.39125L8.47795 6.39309L8.47485 6.39384L8.47341 6.39396L8.516 5.69266L8.56435 4.89672ZM6.98688 6.33134V13.1943H8.48688V6.33134H6.98688ZM6.98688 13.1943V16.9392H8.48688V13.1943H6.98688ZM6.98688 16.9392V19.6453H8.48688V16.9392H6.98688Z" fill="#AE1425"/>
<rect x="8.00055" y="6" width="9" height="8" fill="#AE1425"/>
<rect x="13.0005" y="11" width="5" height="3" fill="#AE1425"/>
<rect x="13.0005" y="5" width="5" height="3" fill="#AE1425"/>
</svg>
