<svg width="32" height="29" viewBox="0 0 32 29" fill="none" xmlns="http://www.w3.org/2000/svg">
<g id="Frame 48">
<path d="M0 0H32V24C32 26.7614 29.7614 29 27 29H5C2.23858 29 0 26.7614 0 24V0Z" fill="#E44D4D"/>
<path id="Vector" d="M11.2429 7.25L8.80005 9.70977L10.0474 10.9658L13.1313 14.1234L10.0474 17.2286L8.80005 18.4323L11.2429 20.9444L12.4902 19.6884L15.626 16.5308L18.7099 19.6884L19.9053 20.9444L22.4 18.4323L21.1527 17.2286L18.0169 14.1234L21.1527 10.9658L22.4 9.70977L19.9053 7.25L18.7099 8.50605L15.626 11.6113L12.4902 8.50605L11.2429 7.25Z" fill="white"/>
</g>
</svg>
